<?xml version="1.0" standalone="no"?>
<!DOCTYPE svg PUBLIC "-//W3C//DTD SVG 20010904//EN"
 "http://www.w3.org/TR/2001/REC-SVG-20010904/DTD/svg10.dtd">
<svg version="1.0" xmlns="http://www.w3.org/2000/svg"
 width="221.000000pt" height="74.000000pt" viewBox="0 0 221.000000 74.000000"
 preserveAspectRatio="xMidYMid meet">

<g transform="translate(0.000000,74.000000) scale(0.100000,-0.100000)"
fill="#000000" stroke="none">
<path d="M22 703 c26 -27 28 -35 28 -113 0 -65 -4 -88 -17 -103 -18 -19 -17
-19 73 -15 108 5 146 25 165 88 15 50 5 86 -36 127 -31 31 -37 33 -103 33 -38
0 -85 3 -103 6 l-34 7 27 -30z m174 -68 c28 -43 -2 -105 -52 -105 -23 0 -24 3
-24 65 l0 65 30 0 c20 0 35 -8 46 -25z"/>
<path d="M1373 711 c-49 -23 -73 -63 -73 -121 0 -32 7 -48 33 -77 29 -31 41
-37 88 -40 45 -4 60 -1 89 19 138 94 16 290 -137 219z m90 -52 c29 -15 37 -28
37 -59 0 -61 -68 -93 -112 -53 -24 22 -24 77 2 103 23 23 42 25 73 9z"/>
<path d="M1895 718 c-30 -16 -45 -39 -45 -68 0 -33 23 -55 76 -73 40 -14 57
-43 31 -52 -15 -7 -51 7 -86 32 l-23 17 7 -44 c4 -25 13 -48 19 -52 6 -4 35
-8 64 -8 43 0 58 5 77 25 28 27 33 71 11 100 -8 11 -36 27 -62 35 -27 9 -48
21 -46 26 3 11 60 11 85 0 14 -7 17 -3 17 27 0 31 -3 35 -31 41 -44 9 -71 7
-94 -6z"/>
<path d="M286 712 c6 -4 13 -46 16 -96 4 -85 6 -90 36 -118 43 -37 108 -39
149 -4 26 23 28 31 33 118 5 85 7 93 25 93 19 0 20 -8 23 -104 2 -67 -1 -108
-9 -117 -10 -12 -2 -14 47 -14 45 0 55 3 46 12 -7 7 -12 39 -12 72 l0 60 75
-74 75 -74 0 115 c0 76 4 119 12 127 9 9 -1 12 -48 12 -45 -1 -55 -3 -41 -11
12 -7 17 -23 17 -52 l0 -41 -53 52 -53 52 -86 0 -87 0 -3 -92 c-3 -92 -3 -93
-29 -96 -41 -5 -51 17 -47 107 l3 81 -50 0 c-27 0 -45 -4 -39 -8z"/>
<path d="M878 704 c-36 -19 -58 -63 -58 -116 0 -93 81 -137 206 -112 29 5 29
6 26 70 l-4 64 -51 0 c-46 -1 -50 -2 -34 -14 12 -10 17 -24 15 -43 -3 -24 -7
-28 -31 -26 -16 1 -35 7 -43 14 -18 14 -18 79 -1 103 15 20 66 24 110 7 31
-12 35 -2 17 43 -9 24 -14 26 -67 26 -32 -1 -70 -7 -85 -16z"/>
<path d="M1088 708 c8 -8 12 -47 12 -111 0 -83 -3 -102 -17 -113 -15 -11 -3
-13 83 -14 l102 0 10 40 c9 37 2 54 -13 30 -3 -5 -26 -10 -51 -10 -37 0 -44 3
-44 20 0 17 7 20 40 20 38 0 40 2 40 30 0 28 -2 30 -40 30 -30 0 -40 4 -40 16
0 13 9 15 50 12 41 -2 50 0 50 14 0 44 -8 48 -103 48 -71 0 -88 -3 -79 -12z"/>
<path d="M1588 708 c8 -8 12 -48 12 -115 0 -87 -3 -104 -17 -112 -14 -8 -2
-10 46 -11 61 0 63 1 48 18 -17 19 -25 122 -10 122 4 0 40 -33 80 -72 l73 -72
0 115 c0 76 4 119 12 127 9 9 -1 12 -46 12 -52 0 -56 -1 -42 -16 16 -16 22
-74 8 -74 -4 0 -28 20 -52 45 -38 38 -50 45 -84 45 -31 0 -37 -3 -28 -12z"/>
<path d="M260 460 c8 -5 31 -10 50 -10 26 0 31 3 20 10 -8 5 -31 10 -50 10
-26 0 -31 -3 -20 -10z"/>
<path d="M237 419 c-8 -11 -13 -29 -10 -40 7 -27 -21 -25 -35 4 l-11 22 0 -23
c-1 -30 19 -68 28 -54 4 7 17 3 36 -13 l30 -24 -27 -1 c-15 0 -30 -5 -34 -11
-3 -6 -14 -9 -24 -6 -10 2 -24 1 -31 -4 -11 -7 -10 -9 3 -9 23 0 33 -19 19
-33 -9 -9 -11 -7 -5 8 7 20 6 20 -15 -1 -16 -15 -22 -33 -23 -75 -2 -73 6 -92
50 -123 65 -45 151 -29 189 34 21 36 33 38 33 6 0 -31 10 -56 21 -56 5 0 9 8
9 18 0 14 2 14 9 3 5 -8 18 -16 28 -17 10 -2 34 -5 53 -8 28 -5 31 -4 13 4
-30 12 -30 34 -1 27 26 -7 58 17 58 45 0 24 -12 23 -27 -2 -17 -27 -83 -38
-95 -16 -5 9 -18 16 -28 16 -11 0 -40 20 -65 44 -25 24 -45 40 -45 36 0 -5 4
-11 9 -15 6 -3 9 -14 8 -25 -1 -10 -4 -17 -8 -15 -3 3 -15 -5 -25 -17 -13 -14
-14 -19 -4 -13 13 7 13 6 0 -8 -23 -23 -54 -29 -76 -12 -18 13 -18 14 -1 15
17 0 17 1 3 16 -20 20 -20 73 0 102 20 29 34 28 34 -3 0 -17 4 -23 15 -19 13
5 13 9 0 34 -22 43 8 56 47 20 23 -21 39 -22 46 -2 2 7 0 11 -5 10 -12 -4 -58
46 -59 66 -2 13 1 14 11 6 10 -8 17 0 31 35 12 32 14 49 7 56 -8 8 -13 2 -18
-20 -9 -42 -25 -39 -25 4 0 24 -6 37 -19 45 -31 16 -59 12 -74 -11z m78 -20
c3 -10 0 -29 -7 -41 -16 -29 -18 -58 -4 -55 6 1 10 -4 8 -12 -2 -8 3 -18 10
-22 10 -7 9 -9 -3 -9 -21 0 -74 81 -58 90 8 6 8 9 0 14 -17 11 -13 44 6 54 22
13 41 5 48 -19z m-111 -214 c-28 -68 -8 -117 57 -141 27 -10 29 -13 12 -13
-42 -2 -103 30 -109 55 -9 36 3 85 28 111 28 30 30 29 12 -12z m126 -135 c-8
-5 -19 -10 -25 -10 -5 0 -3 5 5 10 8 5 20 10 25 10 6 0 3 -5 -5 -10z"/>
<path d="M439 411 c6 -10 17 -23 25 -31 10 -7 16 -28 16 -52 0 -27 4 -37 12
-32 6 4 8 3 4 -4 -3 -6 -22 -16 -40 -22 -24 -8 -34 -17 -33 -30 1 -10 5 -16 9
-14 12 8 9 -11 -4 -24 -16 -16 -31 -15 -22 1 4 6 -1 4 -12 -5 -16 -14 -23 -15
-33 -5 -11 10 -11 8 -1 -8 16 -26 98 -77 119 -73 9 2 17 12 19 23 3 18 2 19
-8 2 -11 -17 -13 -17 -41 0 -35 21 -34 19 -9 61 16 27 18 37 9 48 -15 18 -2
18 17 0 18 -19 18 -35 -3 -58 -15 -17 -13 -18 57 -18 99 0 152 25 174 81 30
74 -12 155 -85 164 -19 2 -67 6 -107 9 -67 4 -71 4 -63 -13z m179 -63 c7 -7
12 -29 12 -50 0 -29 -6 -41 -25 -54 -25 -16 -55 -16 -58 1 -1 6 8 11 21 13 33
5 16 22 -21 22 -24 0 -28 3 -17 10 9 6 14 21 12 40 -3 28 -1 30 30 30 19 0 39
-5 46 -12z"/>
<path d="M1253 411 c-54 -25 -77 -68 -70 -129 9 -84 80 -124 189 -108 l43 6 0
65 0 65 -49 0 c-39 0 -47 -3 -38 -12 7 -7 12 -25 12 -40 0 -24 -4 -28 -28 -28
-37 0 -62 28 -62 68 0 62 58 89 120 57 l30 -16 0 35 c0 41 -2 42 -60 50 -33 5
-56 1 -87 -13z"/>
<path d="M1513 411 c-49 -23 -73 -62 -73 -121 0 -32 7 -48 33 -77 29 -31 41
-37 88 -40 45 -4 60 -1 89 19 59 40 77 107 44 169 -16 31 -81 69 -119 69 -11
0 -39 -9 -62 -19z m90 -52 c29 -15 37 -28 37 -59 0 -61 -68 -93 -112 -53 -24
22 -24 77 2 103 23 23 42 25 73 9z"/>
<path d="M2033 420 c-43 -17 -58 -84 -25 -113 10 -9 36 -23 58 -30 40 -14 56
-40 30 -50 -8 -3 -36 5 -62 19 l-47 25 7 -43 c4 -23 12 -46 19 -51 7 -4 39 -6
71 -4 47 3 63 8 77 26 42 52 14 113 -61 134 -25 7 -44 17 -42 22 3 12 59 12
85 1 14 -7 17 -3 17 27 0 31 -3 35 -31 41 -41 8 -69 7 -96 -4z"/>
<path d="M718 408 c8 -8 12 -47 12 -111 0 -83 -3 -102 -17 -113 -16 -12 -8
-13 51 -14 59 0 67 2 52 13 -12 9 -17 23 -14 50 l3 38 40 -51 40 -50 62 0 c59
0 63 1 60 23 -2 20 3 22 47 25 47 3 48 3 44 -22 -5 -25 -4 -26 48 -26 48 0 72
12 44 22 -5 2 -30 53 -54 113 l-44 110 -47 3 c-33 2 -45 0 -40 -8 7 -12 -63
-190 -74 -189 -3 0 -17 14 -30 31 -23 29 -23 31 -8 58 22 37 21 52 -4 84 -19
24 -26 26 -102 26 -63 0 -78 -3 -69 -12z m122 -56 c0 -19 -18 -42 -32 -42 -4
0 -8 14 -8 30 0 23 4 30 20 30 13 0 20 -7 20 -18z m230 -64 c0 -11 -8 -18 -20
-18 -23 0 -25 12 -9 42 9 17 13 18 20 7 5 -8 9 -22 9 -31z"/>
<path d="M1728 408 c8 -8 12 -47 12 -111 0 -83 -3 -102 -17 -113 -16 -12 -9
-13 46 -14 61 0 63 1 48 18 -17 19 -25 122 -10 122 4 0 40 -33 80 -72 l73 -72
0 115 c0 76 4 119 12 127 9 9 -1 12 -46 12 -52 0 -56 -1 -42 -16 16 -16 22
-74 8 -74 -4 0 -28 20 -52 45 -38 38 -50 45 -84 45 -31 0 -37 -3 -28 -12z"/>
<path d="M318 213 c7 -3 16 -2 19 1 4 3 -2 6 -13 5 -11 0 -14 -3 -6 -6z"/>
<path d="M495 100 c-3 -6 1 -13 10 -16 21 -9 26 -2 10 13 -9 8 -16 9 -20 3z"/>
</g>
</svg>
